<?xml version="1.0" encoding="UTF-8" standalone="no"?>
<!-- Created with Inkscape (http://www.inkscape.org/) -->

<svg
   width="111.91875mm"
   height="146.28799mm"
   viewBox="0 0 111.91875 146.288"
   version="1.1"
   id="svg10421"
   xml:space="preserve"
   inkscape:export-filename="inventory.svg"
   inkscape:export-xdpi="96"
   inkscape:export-ydpi="96"
   xmlns:inkscape="http://www.inkscape.org/namespaces/inkscape"
   xmlns:sodipodi="http://sodipodi.sourceforge.net/DTD/sodipodi-0.dtd"
   xmlns="http://www.w3.org/2000/svg"
   xmlns:svg="http://www.w3.org/2000/svg"><sodipodi:namedview
     id="namedview10423"
     pagecolor="#ffffff"
     bordercolor="#000000"
     borderopacity="0.25"
     inkscape:showpageshadow="2"
     inkscape:pageopacity="0.0"
     inkscape:pagecheckerboard="0"
     inkscape:deskcolor="#d1d1d1"
     inkscape:document-units="mm"
     showgrid="false" /><defs
     id="defs10418" /><g
     inkscape:label="Capa 1"
     inkscape:groupmode="layer"
     id="layer1"
     transform="translate(-45.721943,-24.379274)"><path
       style="fill:#ffffff;fill-opacity:1;stroke-width:0.264583"
       d="m 82.285409,83.817252 5.888313,5.561926 10.609791,-7.704209 7.262107,-10.560092 13.27281,17.845933 6.44984,-1.271426 0.46065,-4.903959 -13.6437,-16.901636 15.29418,-12.220212 -3.86694,-4.955886 -5.02487,-2.815827 -1.70982,-4.141402 -6.73914,0.247758 -1.77139,-2.780963 1.68979,-7.041051 -7.20202,-3.647371 -4.291985,5.209577 -4.010104,-0.97471 -3.864716,-4.87948 -6.801453,2.57252 0.340482,5.651682 -2.877397,3.085837 -6.164257,-2.180856 -4.532323,7.171605 5.31491,4.491526 -0.672801,4.041261 -4.93289,2.406359 1.384176,7.834021 7.266554,-0.428752 2.208303,2.982728 -1.809962,6.825191 4.324623,6.073016 -3.238646,2.375947 z"
       id="path11441" /><path
       style="fill:#ffffff;fill-opacity:1;stroke-width:0.264583"
       d="m 128.21914,91.745481 -23.73202,14.024979 0.1988,26.80822 23.82103,11.75214 20.50599,-41.29755 z"
       id="path12357" /><path
       style="fill:#ffffff;fill-opacity:1;stroke-width:0.264583"
       d="M 56.494928,104.38332 56.460064,132.8702 79.034895,144.79222 100.24929,104.07993 79.004481,92.476144 Z"
       id="path12355" /><path
       style="fill:#000000;stroke-width:0.264583"
       d="m 74.958401,144.20189 c -1.89177,-1.01904 -7.26339,-3.92848 -11.936931,-6.46541 l -8.497349,-4.6126 0.126017,-14.61866 c 0.09001,-10.44133 0.212183,-14.7029 0.427557,-14.9135 0.385672,-0.37711 15.940069,-8.780112 20.207366,-10.916683 1.780395,-0.891418 3.437118,-1.620758 3.681611,-1.620758 0.535988,0 7.660333,3.687553 16.496938,8.538795 l 6.48229,3.558736 0.16795,14.91947 c 0.12352,10.97345 0.0885,14.99917 -0.1323,15.22084 -0.33767,0.33895 -13.785153,8.00773 -19.125347,10.90672 -1.913604,1.03883 -3.699541,1.88137 -3.96875,1.87232 -0.269208,-0.009 -2.037281,-0.85022 -3.929052,-1.86927 z m 3.768313,-17.69344 -0.06415,-9.39271 -4.101042,-2.1796 c -2.255573,-1.19878 -4.184943,-2.18104 -4.28749,-2.18281 -0.102546,-0.002 -0.255176,0.44327 -0.339177,0.98897 -0.389807,2.53234 -0.795456,2.88681 -1.965084,1.71718 -0.571385,-0.57138 -0.858803,-1.21644 -1.100114,-2.46902 -0.419729,-2.17869 -1.233068,-2.97789 -5.294356,-5.20234 l -3.02107,-1.6547 -0.18319,0.99324 c -0.100754,0.54628 -0.190051,6.25057 -0.198437,12.67619 l -0.01525,11.68295 10.120312,5.56069 10.120313,5.56068 0.196437,-3.35301 c 0.10804,-1.84415 0.167571,-7.57972 0.132292,-12.74571 z m 6.77664,-14.86199 c 6.808751,-3.81667 13.135256,-7.60843 13.135256,-7.87255 0,-0.12377 -1.702496,-1.09334 -3.783322,-2.1546 l -3.783322,-1.92956 -7.130741,3.96755 c -3.921908,2.18215 -7.933899,4.49346 -8.915537,5.13624 l -1.784795,1.1687 0.59417,0.58054 c 0.873773,0.85372 5.805111,3.78489 6.376625,3.79024 0.269933,0.003 2.651183,-1.20643 5.291666,-2.68656 z m -13.615477,-4.6274 c 5.70619,-3.04577 14.72324,-8.081295 15.068979,-8.415189 0.296728,-0.286562 0.14878,-0.487675 -0.87889,-1.194731 -1.652329,-1.136833 -6.000324,-3.179861 -6.767415,-3.179861 -0.337539,0 -3.300325,1.473803 -6.583971,3.275116 -3.283644,1.801312 -7.250184,3.972825 -8.814533,4.825575 -1.564349,0.85276 -2.840779,1.61138 -2.836511,1.68583 0.0066,0.11576 7.609382,4.4278 7.901924,4.48172 0.05746,0.0106 1.367149,-0.65471 2.910417,-1.47846 z m 53.191143,37.65978 c -1.3923,-0.6279 -3.53543,-1.68123 -4.7625,-2.34074 -11.07952,-5.95491 -16.71732,-9.0834 -16.80403,-9.32481 -0.0567,-0.15792 -0.0157,-6.71651 0.0912,-14.57463 l 0.19431,-14.28751 10.98021,-6.293846 c 6.03912,-3.461618 11.53978,-6.585988 12.2237,-6.94304 l 1.24349,-0.64919 11.23424,5.716173 c 10.80775,5.499173 11.23962,5.747683 11.37597,6.546163 0.078,0.4565 0.17659,7.53561 0.21917,15.73136 l 0.0774,14.90137 -9.38961,5.29316 c -9.86382,5.56048 -13.25766,7.37057 -13.8155,7.36845 -0.18513,-7.9e-4 -1.47576,-0.51501 -2.86807,-1.14291 z m 2.23241,-2.8907 c 0.0877,-0.32743 0.16116,-5.91179 0.16315,-12.40969 l 0.004,-11.81438 -1.38906,-0.91646 c -1.44479,-0.95322 -6.85825,-3.8975 -7.16609,-3.8975 -0.0969,0 -0.1761,0.70735 -0.1761,1.57189 0,0.86453 -0.11556,1.64331 -0.25681,1.7306 -0.36443,0.22523 -1.75099,-0.54407 -2.24067,-1.24318 -0.23265,-0.33216 -0.41293,-1.13498 -0.41293,-1.83884 0,-0.91798 -0.15788,-1.42937 -0.59532,-1.92831 -0.81341,-0.9278 -8.17727,-4.97124 -8.48787,-4.66063 -0.13576,0.13576 -0.30321,5.64466 -0.38061,12.52155 l -0.13821,12.27915 10.29111,5.57308 c 5.66011,3.06519 10.36652,5.58544 10.45868,5.60055 0.0922,0.0151 0.23937,-0.24041 0.32712,-0.56783 z m 7.3151,-30.43641 c 8.97426,-4.94451 12.94697,-7.1934 12.95365,-7.33287 0.003,-0.0728 -1.73245,-1.06501 -3.85763,-2.20501 l -3.86397,-2.072718 -1.62613,0.862768 c -7.52864,3.99443 -15.23648,8.32057 -15.77818,8.85574 -0.49331,0.48735 -0.59278,0.75328 -0.39688,1.06101 0.30935,0.48594 6.16619,3.78864 6.74831,3.8054 0.2208,0.006 2.84018,-1.33209 5.82083,-2.97432 z m -10.14974,-6.42638 c 7.87058,-4.30022 11.73439,-6.511503 11.72776,-6.711856 -0.003,-0.08127 -1.8338,-1.093536 -4.06914,-2.249488 l -4.06426,-2.101733 -5.12512,2.806621 c -6.31311,3.457186 -11.34036,6.287556 -12.15105,6.841116 l -0.61098,0.41719 1.29371,0.8901 c 0.973,0.66944 6.11708,3.64421 6.3845,3.69208 0.0227,0.004 2.99928,-1.60874 6.61458,-3.58403 z M 86.282671,89.974683 c -3.442869,-1.704202 -6.840117,-6.835021 -6.329129,-9.558809 0.147306,-0.78522 0.888719,-1.555316 4.939641,-5.130763 2.621475,-2.313781 5.089977,-4.338865 5.485561,-4.500187 0.395581,-0.161322 1.562515,-0.6106 2.593184,-0.998395 1.030668,-0.387797 2.68828,-1.239943 3.683582,-1.89366 0.995302,-0.653717 2.295152,-1.273302 2.888557,-1.376855 0.933323,-0.162872 0.749093,-0.212299 -1.365274,-0.366278 -6.776424,-0.493496 -10.969458,-5.457177 -10.154571,-12.020892 0.454247,-3.658852 1.370666,-3.65736 4.355087,0.0071 l 2.054394,2.522506 h 2.375339 c 1.663211,0 2.40945,-0.09915 2.489108,-0.330729 0.06257,-0.181901 0.280471,-1.241893 0.484222,-2.355535 l 0.370458,-2.024809 -2.080029,-2.594152 c -2.143988,-2.673927 -2.489674,-3.56942 -1.568252,-4.06255 1.182169,-0.632677 4.975171,0.0171 7.214531,1.235909 3.57784,1.947304 5.66037,6.48777 4.92014,10.727179 -0.38042,2.178698 -0.39952,2.907718 -0.0787,3.005825 0.14553,0.04451 2.11006,-1.443828 4.36563,-3.307405 4.01187,-3.31465 4.09921,-3.408799 4.01701,-4.329973 -0.082,-0.918744 -0.0317,-0.973841 2.06645,-2.265069 3.58993,-2.209258 4.85397,-2.798015 5.57358,-2.596026 0.6154,0.172734 2.29682,2.04292 4.14291,4.607997 1.05937,1.471967 1.07041,1.448218 -2.27703,4.897914 -2.47807,2.55377 -2.5658,2.615259 -3.54438,2.484004 -0.95732,-0.128405 -1.17006,0.0021 -4.63108,2.843004 -1.99522,1.637673 -3.78034,3.16185 -3.96695,3.387058 -0.29066,0.350801 0.46288,1.313942 5.25917,6.722061 3.07915,3.471923 5.99846,6.799186 6.48735,7.393916 3.01896,3.67247 1.82995,8.785483 -2.33068,10.022447 -1.80592,0.536906 -3.23963,0.323548 -5.0269,-0.748083 -1.18231,-0.708898 -2.192,-1.897423 -6.88688,-8.106728 -3.02579,-4.001824 -5.61954,-7.31573 -5.76388,-7.364236 -0.14434,-0.04851 -0.26244,0.111898 -0.26244,0.356455 0,0.244557 -0.76048,1.236744 -1.68995,2.20486 -0.92947,0.968116 -2.35266,2.792302 -3.16264,4.053748 -1.3133,2.04529 -1.839167,2.577314 -4.858492,4.915379 -7.086478,5.487533 -7.497021,5.678104 -9.788607,4.543782 z m 3.721531,-3.083346 c 2.780562,-2.022308 6.936965,-5.338908 7.601818,-6.065869 0.377963,-0.413269 1.138262,-1.507948 1.689555,-2.432619 0.551294,-0.924674 1.708255,-2.353321 2.571025,-3.174773 1.45313,-1.383538 1.55642,-1.558856 1.40233,-2.380231 -0.12042,-0.641869 -0.0416,-1.024589 0.28566,-1.38615 0.42909,-0.474141 0.41472,-0.553281 -0.28359,-1.560941 -0.40459,-0.583811 -0.76534,-1.061477 -0.80167,-1.061477 -0.0363,0 -0.38488,0.165402 -0.77454,0.367562 -0.54147,0.280916 -0.88635,0.300421 -1.46305,0.08274 -0.685938,-0.258913 -0.9358,-0.162393 -2.74678,1.061064 -1.157528,0.782 -2.878762,1.641139 -4.108238,2.050593 -1.907477,0.635249 -2.436985,0.980405 -5.372386,3.501972 -1.790994,1.538499 -3.809762,3.330274 -4.486153,3.981723 -1.116857,1.075672 -1.209088,1.256678 -1.004263,1.970863 0.40713,1.419574 1.521917,3.019139 3.163059,4.538546 1.943886,1.799696 2.465761,1.860841 4.327223,0.506997 z m 34.172288,0.109226 c 1.17461,-1.17461 1.39455,-2.407788 0.70675,-3.962673 -0.32579,-0.736505 -2.58284,-3.492699 -5.91134,-7.218638 -2.96138,-3.314984 -7.09394,-7.940496 -9.18346,-10.278921 -2.08952,-2.338424 -3.96526,-4.499448 -4.16832,-4.80228 -0.32186,-0.480002 -0.3012,-0.748228 0.16111,-2.091941 1.56217,-4.540547 -0.46435,-9.07408 -4.72726,-10.575345 -1.311199,-0.461764 -1.355066,-0.599912 0.55417,1.74523 0.54957,0.675039 0.99922,1.51807 0.99922,1.873403 0,1.069724 -0.98527,6.190232 -1.30665,6.790733 -0.2841,0.53085 -0.49925,0.559512 -4.192763,0.558575 l -3.893296,-0.0011 -1.322916,-1.640348 c -1.269267,-1.573827 -1.326346,-1.610993 -1.407467,-0.916448 -0.256908,2.199574 1.901772,5.198042 4.65646,6.467962 1.313603,0.605576 1.837039,0.693735 3.963046,0.667459 l 2.449536,-0.03027 0.88426,1.100249 c 0.48634,0.605134 4.24898,5.56509 8.36141,11.022122 8.25098,10.948694 8.52851,11.287314 9.66775,11.795824 1.45785,0.650724 2.72776,0.478298 3.70976,-0.503706 z m -6.92306,-26.845408 c 4.27781,-3.434315 4.79278,-3.772466 5.64112,-3.704167 0.84121,0.06773 1.06438,-0.07365 2.2562,-1.429398 1.47699,-1.680139 1.49487,-1.479243 -0.31839,-3.576725 l -0.92604,-1.071195 -1.91872,1.091864 c -1.68178,0.957041 -1.90093,1.168387 -1.77477,1.711558 0.17635,0.759251 -0.24429,1.173409 -5.83936,5.749386 l -4.09762,3.351273 0.86211,0.984983 c 0.47416,0.541743 0.98491,0.914506 1.135,0.828369 0.1501,-0.08614 2.3913,-1.857315 4.98047,-3.935948 z M 80.063042,73.934222 c -1.441675,-1.511104 -1.567934,-2.691884 -0.581763,-5.440643 0.377531,-1.052293 0.74508,-2.108145 0.816776,-2.346336 0.07421,-0.246523 -0.205007,-0.808413 -0.648194,-1.304425 l -0.778553,-0.871352 -2.64573,0.337169 c -2.518068,0.3209 -2.697803,0.310602 -3.724907,-0.213386 -1.418599,-0.723715 -1.768517,-1.269104 -2.723726,-4.245264 -1.313688,-4.093081 -0.837187,-5.270389 2.948955,-7.286083 2.395292,-1.275226 2.50036,-1.36864 2.57741,-2.29155 0.07592,-0.909301 -0.03053,-1.053828 -1.938518,-2.632062 -1.110366,-0.918462 -2.188308,-1.997637 -2.39543,-2.398167 -0.683206,-1.321175 -0.474934,-2.951905 0.667106,-5.22331 1.237226,-2.460721 2.216295,-3.516448 3.663114,-3.949926 0.9609,-0.287892 1.320445,-0.237838 3.706865,0.51606 l 2.642751,0.834875 0.82179,-0.585165 c 0.929966,-0.662194 0.973977,-0.980876 0.517327,-3.745994 -0.567756,-3.437889 0.507172,-4.99033 4.280773,-6.18241 2.597372,-0.82051 3.706101,-0.845586 5.209461,-0.117823 1.034118,0.500609 1.269944,0.805404 2.32665,3.007088 1.173546,2.445123 1.17815,2.450328 2.306214,2.607162 0.883537,0.122837 1.204752,0.05841 1.471229,-0.295108 2.929608,-3.886498 3.735598,-4.550704 5.524098,-4.552309 0.75624,-6.88e-4 1.67031,0.298269 2.91042,0.95185 4.55148,2.398805 5.18579,3.848687 3.55797,8.132631 l -0.78809,2.074011 0.84193,0.905591 0.84193,0.90559 1.5875,-0.266089 c 0.87313,-0.14635 2.19471,-0.26678 2.93687,-0.267623 2.57131,-0.0029 4.42205,2.183709 4.4575,5.266504 0.0139,1.20744 0.009,1.214256 -0.88628,1.214256 -0.86565,0 -0.92871,-0.07027 -1.64098,-1.828639 -0.4074,-1.005752 -0.89526,-1.933611 -1.08413,-2.061909 -0.18887,-0.128298 -0.87918,-0.164069 -1.53402,-0.07949 -3.44054,0.444371 -4.53425,0.468136 -5.19794,0.112945 -0.85754,-0.458947 -2.73834,-3.059253 -2.74328,-3.792749 -0.002,-0.303732 0.37836,-1.644543 0.84536,-2.97958 1.11052,-3.174755 1.00207,-3.437902 -2.01303,-4.88465 -1.73601,-0.832998 -2.33673,-1.010327 -2.71169,-0.800487 -0.26491,0.148254 -1.20396,1.200774 -2.08677,2.338932 l -1.605102,2.069378 -2.099504,-0.01385 c -3.4072,-0.02247 -3.428388,-0.03541 -4.774398,-2.915793 -1.525249,-3.263943 -1.719945,-3.359176 -4.777674,-2.336957 -1.264626,0.422773 -2.420622,0.968106 -2.568876,1.211851 -0.185568,0.305086 -0.161843,1.324509 0.07614,3.271712 0.328287,2.686111 0.319744,2.863639 -0.169706,3.525578 -0.748321,1.012045 -3.024016,2.678527 -3.659831,2.68008 -0.300124,7.34e-4 -1.60238,-0.355854 -2.893904,-0.792416 -2.81391,-0.951162 -3.058676,-0.964075 -3.76161,-0.198438 -0.718849,0.782973 -2.191515,3.745502 -2.191515,4.408626 0,0.310991 0.660284,1.087497 1.637538,1.925775 3.366495,2.887744 3.182766,2.592662 2.972597,4.774157 -0.275778,2.862515 -0.341011,2.95663 -2.961519,4.272728 -3.088703,1.551239 -3.153513,1.638541 -2.738289,3.688533 0.382117,1.88654 1.029777,3.332819 1.665137,3.718391 0.304218,0.184615 1.314206,0.162486 3.221201,-0.07058 2.719364,-0.332352 2.794805,-0.327121 3.572283,0.247695 0.959776,0.709591 2.328733,2.564672 2.543736,3.447028 0.09789,0.401746 -0.142994,1.413542 -0.644877,2.708667 -0.973233,2.511468 -0.996868,3.253068 -0.140661,4.413595 0.583288,0.790601 0.618435,0.958953 0.300718,1.440465 -0.552016,0.836605 -1.519219,0.820741 -2.338848,-0.03836 z"
       id="path10917" /></g></svg>
