<?xml version="1.0" encoding="UTF-8" standalone="no"?>
<!-- Created with Inkscape (http://www.inkscape.org/) -->

<svg
   width="67.029976mm"
   height="91.168755mm"
   viewBox="0 0 67.029976 91.168755"
   version="1.1"
   id="svg5500"
   xml:space="preserve"
   xmlns:inkscape="http://www.inkscape.org/namespaces/inkscape"
   xmlns:sodipodi="http://sodipodi.sourceforge.net/DTD/sodipodi-0.dtd"
   xmlns="http://www.w3.org/2000/svg"
   xmlns:svg="http://www.w3.org/2000/svg"><sodipodi:namedview
     id="namedview5502"
     pagecolor="#ffffff"
     bordercolor="#000000"
     borderopacity="0.25"
     inkscape:showpageshadow="2"
     inkscape:pageopacity="0.0"
     inkscape:pagecheckerboard="0"
     inkscape:deskcolor="#d1d1d1"
     inkscape:document-units="mm"
     showgrid="false" /><defs
     id="defs5497" /><g
     inkscape:label="Capa 1"
     inkscape:groupmode="layer"
     id="layer1"
     transform="translate(-71.263992,-79.565193)"><rect
       style="fill:#000000;fill-opacity:0;stroke-width:0.264583"
       id="rect5998"
       width="67.029976"
       height="91.168755"
       x="71.263992"
       y="79.565193" /><ellipse
       style="fill:#ffffff;fill-opacity:1;stroke-width:0.264583"
       id="path7638"
       cx="123.37783"
       cy="116.91614"
       rx="11.000826"
       ry="8.4803572" /><ellipse
       style="fill:#ffffff;fill-opacity:1;stroke-width:0.30302"
       id="path7052"
       cx="102.45166"
       cy="93.196182"
       rx="16.822979"
       ry="11.87128" /><ellipse
       style="fill:#ffffff;fill-opacity:0.970675;stroke-width:0.264583"
       id="path7640"
       cx="90.680183"
       cy="129.22108"
       rx="15.576106"
       ry="12.063283" /><path
       style="fill:#ffffff;fill-opacity:1;stroke-width:0.264583"
       d="m 124.08135,124.28505 4.54312,3.39241 0.99301,-5.22569 z"
       id="path7754" /><path
       style="fill:#ffffff;fill-opacity:1;stroke-width:0.264583"
       d="m 93.221108,101.1251 1.287947,7.96653 5.733735,-5.59748 z"
       id="path7750" /><path
       style="fill:#ffffff;fill-opacity:1;stroke-width:0.264583"
       d="m 81.965101,137.17376 1.369433,8.09387 5.022794,-5.90199 z"
       id="path7752" /><path
       style="fill:#000000;stroke-width:0.264583"
       d="m 82.152594,146.64647 c -0.13284,-0.25466 -0.320788,-1.41552 -0.417662,-2.57969 -0.282545,-3.39546 -0.265899,-3.3598 -2.144919,-4.59518 -2.972701,-1.95444 -5.059384,-5.0766 -5.682063,-8.50169 -1.243907,-6.8422 4.308996,-13.45528 12.755878,-15.19129 8.05669,-1.65581 16.571582,1.87049 19.660272,8.14197 1.80044,3.65573 1.80135,6.73687 0.003,10.38826 -1.0405,2.11273 -3.62311,4.78034 -5.81289,6.00424 -3.149617,1.76035 -7.437619,2.73743 -10.95534,2.49632 l -2.063871,-0.14146 -2.048912,2.22077 c -2.061712,2.23464 -2.830714,2.64505 -3.293563,1.75775 z m 7.679501,-5.93903 c 2.608012,0.0642 3.671311,-0.0268 5.322911,-0.45561 4.419189,-1.14738 7.813934,-3.67869 9.484564,-7.07222 0.79589,-1.61668 0.88697,-2.03323 0.88697,-4.05622 0,-1.91179 -0.1117,-2.49305 -0.73478,-3.82354 -1.02119,-2.18057 -2.27634,-3.6186 -4.36078,-4.99613 -2.858652,-1.88918 -5.170374,-2.60232 -8.927352,-2.75399 -3.793443,-0.15314 -5.890748,0.2537 -8.857671,1.71824 -2.495095,1.23164 -4.914554,3.55789 -5.979144,5.74881 -0.686586,1.41299 -0.771383,1.86381 -0.771383,4.10104 0,2.19965 0.08963,2.69527 0.717735,3.96875 1.000327,2.02817 2.755705,3.91435 4.801568,5.15938 0.956498,0.58208 1.792519,1.23693 1.857826,1.45521 0.06531,0.21828 0.200604,1.23031 0.300662,2.24896 l 0.181924,1.85208 1.408958,-1.5875 1.408959,-1.5875 z m -8.411776,-6.93994 c -0.08135,-0.21199 -0.106436,-0.60075 -0.05576,-0.86391 0.08641,-0.44868 0.578009,-0.47847 7.893731,-0.47847 h 7.801584 v 0.79375 0.79375 l -7.745828,0.0702 c -6.58397,0.0596 -7.768014,0.0123 -7.893731,-0.31527 z m 0.21986,-3.90333 c -0.177655,-0.17766 -0.323009,-0.52275 -0.323009,-0.76687 0,-0.95043 0.590161,-1.05175 5.694268,-0.97762 4.392453,0.0638 4.997847,0.12543 5.256028,0.53512 0.212664,0.33747 0.212661,0.58858 -1.2e-5,0.92605 -0.258375,0.40998 -0.865267,0.47122 -5.298034,0.53467 -3.670521,0.0525 -5.092414,-0.0145 -5.329241,-0.25135 z m -0.221397,-4.30277 c -0.0805,-0.20978 -0.104935,-0.59673 -0.0543,-0.85989 0.08623,-0.44813 0.637163,-0.48293 8.68748,-0.54866 7.739745,-0.0632 8.627318,-0.0266 8.915892,0.36728 0.223101,0.30454 0.240371,0.58714 0.05684,0.93008 -0.248816,0.46492 -0.747072,0.49261 -8.861593,0.49261 -7.243709,0 -8.621006,-0.0601 -8.744317,-0.38142 z m 45.803598,3.02726 -1.57094,-1.5875 h -2.13551 c -5.05298,0 -9.47769,-2.35424 -11.52637,-6.1328 -0.84245,-1.55379 -0.90659,-1.8413 -0.90433,-4.05366 0.002,-2.09766 0.0914,-2.55079 0.74958,-3.80489 2.17987,-4.1536 7.06866,-6.62001 12.47715,-6.29475 3.70709,0.22294 6.23632,1.26763 8.69543,3.5916 2.45002,2.31539 3.46136,5.51706 2.69583,8.53436 -0.66785,2.6323 -1.99939,4.31125 -5.13042,6.46903 -0.049,0.0338 -0.20436,0.98929 -0.34515,2.12331 -0.25426,2.04802 -0.53993,2.7428 -1.12772,2.7428 -0.16864,0 -1.01354,-0.71438 -1.87755,-1.5875 z m 1.24155,-3.22117 c 0.075,-1.01778 0.20602,-1.19166 1.66886,-2.21439 4.51335,-3.15545 5.102,-7.88677 1.4201,-11.41418 -2.14114,-2.05131 -4.68291,-2.97629 -8.20955,-2.98754 -8.71485,-0.0278 -13.56433,8.01894 -7.98393,13.24775 2.29071,2.14637 4.77231,2.99969 8.59053,2.95393 2.48966,-0.0298 2.5655,-0.0127 3.29065,0.74419 0.40823,0.42611 0.83219,0.77474 0.94212,0.77474 0.10992,0 0.23648,-0.49703 0.28122,-1.1045 z m -7.17173,-6.26094 c -0.18773,-0.35078 -0.17142,-0.62972 0.0549,-0.93925 0.28172,-0.38527 0.86725,-0.43116 4.6861,-0.36728 l 4.36416,0.073 v 0.79375 0.79375 l -4.41907,0.0725 c -4.10045,0.0673 -4.43832,0.0365 -4.68611,-0.42647 z m -3.52868,-3.23908 c -0.53476,-0.31148 -0.60605,-1.05287 -0.14552,-1.5134 0.4504,-0.4504 12.14377,-0.4504 12.59417,0 0.47674,0.47675 0.38251,1.2166 -0.19427,1.52528 -0.67751,0.36259 -11.62968,0.35197 -12.25438,-0.0119 z m -24.476035,-5.07204 c -0.208945,-0.26046 -0.857815,-4.56419 -0.857815,-5.68959 0,-0.13287 -0.939634,-0.85359 -2.088075,-1.60161 -4.456898,-2.90292 -6.661511,-6.84051 -6.293342,-11.240334 0.458953,-5.484726 5.284191,-10.174499 12.482458,-12.132019 3.032816,-0.824754 8.873439,-0.824754 11.906249,0 5.68128,1.544987 9.67957,4.594331 11.69896,8.922373 0.63703,1.365312 0.731,1.889801 0.731,4.080243 0,2.184083 -0.0948,2.716697 -0.72332,4.06348 -2.00286,4.291717 -5.59829,7.109397 -11.23129,8.801777 -1.98898,0.59758 -2.89972,0.70934 -6.26289,0.76855 l -3.935468,0.0693 -2.155479,2.14428 c -2.12707,2.11603 -2.750892,2.46189 -3.270988,1.81356 z m 9.196355,-6.14257 c 3.75575,-0.0368 4.62435,-0.12723 6.2177,-0.6473 4.32064,-1.41027 7.7362,-3.94937 9.28878,-6.905196 0.68529,-1.304676 0.76285,-1.707874 0.76285,-3.965871 0,-2.257997 -0.0776,-2.661196 -0.76285,-3.965872 -1.57962,-3.007319 -5.05284,-5.559914 -9.42107,-6.923885 -1.72224,-0.537769 -2.5261,-0.619618 -6.08541,-0.619618 -3.559314,0 -4.363173,0.08185 -6.08542,0.619618 -4.369977,1.364518 -7.846027,3.919913 -9.41842,6.923885 -0.680684,1.300413 -0.760613,1.715253 -0.764121,3.965872 -0.0033,2.136427 0.09338,2.712022 0.644581,3.836458 0.883155,1.801607 3.486409,4.346219 5.56921,5.443749 l 1.719792,0.90625 0.219427,1.5875 c 0.43175,3.12359 0.251943,3.01235 2.105775,1.30281 l 1.643547,-1.51562 z M 92.411264,97.742523 c -0.252382,-0.304101 -0.271503,-0.539983 -0.06971,-0.859896 0.251397,-0.398546 1.224501,-0.440843 10.142286,-0.440843 8.91777,0 9.89088,0.0423 10.14227,0.440843 0.2018,0.319913 0.18268,0.555795 -0.0697,0.859896 -0.30578,0.368439 -1.52235,0.419053 -10.07257,0.419053 -8.55023,0 -9.766801,-0.05061 -10.072579,-0.419053 z m 0.07132,-3.867197 c -0.476743,-0.476743 -0.382509,-1.21659 0.194272,-1.525274 0.305341,-0.163414 2.713642,-0.273893 5.970519,-0.273893 3.256885,0 5.665185,0.110479 5.970525,0.273893 0.57678,0.308684 0.67101,1.048531 0.19427,1.525274 -0.4501,0.450104 -11.879482,0.450104 -12.329586,0 z m -0.06815,-4.33106 c -0.255023,-0.307285 -0.274946,-0.543384 -0.07288,-0.863722 0.249558,-0.395631 1.102737,-0.440843 8.319036,-0.440843 h 8.04095 v 0.79375 0.79375 l -7.96807,0.06997 c -7.033086,0.06176 -8.009257,0.02035 -8.319034,-0.352908 z"
       id="path5633" /></g></svg>
