<?xml version="1.0" encoding="UTF-8" standalone="no"?>
<!-- Created with Inkscape (http://www.inkscape.org/) -->

<svg
   width="108.50874mm"
   height="121.97366mm"
   viewBox="0 0 108.50875 121.97366"
   version="1.1"
   id="svg5"
   xml:space="preserve"
   inkscape:export-filename="bitmap.svg"
   inkscape:export-xdpi="96"
   inkscape:export-ydpi="96"
   sodipodi:docname="tasks.svg"
   xmlns:inkscape="http://www.inkscape.org/namespaces/inkscape"
   xmlns:sodipodi="http://sodipodi.sourceforge.net/DTD/sodipodi-0.dtd"
   xmlns="http://www.w3.org/2000/svg"
   xmlns:svg="http://www.w3.org/2000/svg"><sodipodi:namedview
     id="namedview7"
     pagecolor="#ffffff"
     bordercolor="#000000"
     borderopacity="0.25"
     inkscape:showpageshadow="2"
     inkscape:pageopacity="0.0"
     inkscape:pagecheckerboard="0"
     inkscape:deskcolor="#d1d1d1"
     inkscape:document-units="mm"
     showgrid="false" /><defs
     id="defs2" /><g
     inkscape:label="Capa 1"
     inkscape:groupmode="layer"
     id="layer1"
     transform="translate(-52.911732,-75.298889)"><rect
       style="fill:#000000;fill-opacity:0;stroke-width:0.264583"
       id="rect4353"
       width="108.50874"
       height="121.97366"
       x="52.911732"
       y="75.298889" /><ellipse
       style="fill:#ffffff;fill-opacity:1;stroke-width:0.26051"
       id="path8411"
       cx="80.993393"
       cy="106.20037"
       rx="19.046227"
       ry="19.690866" /><path
       style="fill:#000000;fill-opacity:1;stroke-width:0.264583"
       d="m 91.565896,174.05265 c -1.505236,-0.14628 -1.765023,-0.26072 -2.447396,-1.07809 l -0.76341,-0.91444 v -36.60178 c 0,-31.1613 0.05604,-36.710152 0.377031,-37.330878 0.20737,-0.401005 0.689221,-0.871344 1.070784,-1.045194 0.473493,-0.215741 2.621828,-0.316095 6.766716,-0.316095 h 6.072969 v 2.116666 2.116671 h -5.292657 -5.292659 l 0.06714,34.32968 0.06714,34.32969 h 23.856726 c 13.12119,0 23.9194,-0.0627 23.99601,-0.13942 0.0766,-0.0767 0.17578,-15.52506 0.22036,-34.32973 l 0.0811,-34.19031 -4.82864,4e-5 -4.82865,5e-5 v -2.116671 -2.116666 h 5.66824 5.66824 l 0.79639,0.670118 c 0.43802,0.368564 0.92238,1.053174 1.07636,1.521354 0.19296,0.586706 0.25516,12.044585 0.20016,36.870525 -0.074,33.40493 -0.11252,36.06922 -0.53057,36.70725 -0.24793,0.37838 -0.77123,0.89798 -1.16289,1.15467 -0.66639,0.43673 -2.26747,0.46861 -24.93329,0.49645 -13.32165,0.0163 -24.978976,-0.0439 -25.905168,-0.13389 z M 77.24259,129.69259 c -0.945885,-0.20296 -2.61276,-0.68006 -3.704166,-1.06022 -1.091406,-0.38016 -2.639219,-1.05485 -3.439583,-1.4993 -0.800365,-0.44445 -2.146665,-1.35005 -2.991776,-2.01244 -0.845114,-0.66239 -2.299563,-2.10391 -3.232113,-3.20338 -0.932548,-1.09947 -2.283476,-3.13035 -3.00206,-4.51308 -0.718585,-1.38272 -1.583455,-3.46654 -1.921931,-4.63071 -0.535646,-1.84232 -0.616101,-2.69964 -0.620744,-6.61458 -0.0044,-3.68334 0.08711,-4.80937 0.505111,-6.217707 0.280746,-0.945886 0.838631,-2.457956 1.239747,-3.360158 0.401116,-0.9022 1.319054,-2.509544 2.039863,-3.571875 0.72081,-1.062329 1.94886,-2.565043 2.729003,-3.339362 0.780142,-0.774316 2.192348,-1.921089 3.138233,-2.548379 0.945885,-0.62729 2.338028,-1.450811 3.093648,-1.830046 0.755624,-0.379235 2.422499,-1.011272 3.704167,-1.404525 2.094717,-0.64272 2.744925,-0.716142 6.431351,-0.726228 3.480083,-0.0095 4.413065,0.07852 6.161749,0.581454 1.13339,0.325969 2.821252,0.937519 3.750802,1.358997 0.929552,0.421479 2.502548,1.296824 3.495542,1.945206 0.992997,0.648386 2.543905,1.939753 3.446462,2.869711 0.902558,0.929957 2.062265,2.226611 2.577115,2.881455 0.51486,0.654844 0.93727,1.279922 0.93868,1.389062 0.001,0.109141 -1.1843,0.198438 -2.634917,0.198438 H 96.30929 l -2.073066,-2.103932 c -1.667317,-1.69214 -2.510462,-2.312474 -4.307829,-3.169431 -1.229119,-0.586025 -3.00867,-1.266219 -3.954555,-1.511543 -1.138047,-0.295164 -2.749034,-0.444204 -4.7625,-0.4406 -1.933559,0.0035 -3.669617,0.164126 -4.7625,0.440756 -0.945885,0.239419 -2.791354,0.964602 -4.101041,1.611514 -1.309688,0.646911 -2.993739,1.716566 -3.742336,2.377011 -0.748596,0.660447 -1.954715,2.006264 -2.680266,2.990707 -0.725548,0.98444 -1.617104,2.385205 -1.981231,3.112809 -0.364128,0.727605 -0.84609,1.867416 -1.071028,2.532916 -0.224938,0.6655 -0.542751,2.18702 -0.70625,3.38115 -0.212955,1.55534 -0.219054,2.87261 -0.02151,4.6443 0.151675,1.36024 0.565025,3.32811 0.918556,4.37306 0.353531,1.04495 1.136031,2.73017 1.738892,3.74493 0.602858,1.01476 1.816767,2.61541 2.697575,3.557 0.880806,0.94158 2.462199,2.24844 3.514204,2.90413 1.052004,0.65568 2.759051,1.48 3.793431,1.83182 1.034383,0.35182 2.809028,0.78092 3.943657,0.95357 1.203965,0.18319 2.878508,0.24048 4.021584,0.13759 1.077246,-0.097 2.297637,-0.24411 2.711979,-0.32698 l 0.753367,-0.15067 v 2.25372 c 0,1.81102 -0.08221,2.28527 -0.418515,2.41432 -0.230182,0.0883 -1.867292,0.15114 -3.638021,0.13957 -1.770726,-0.0116 -3.993411,-0.1871 -4.939297,-0.39005 z m 3.497064,-10.2384 c 0.06123,-2.43619 0.14686,-2.97656 0.471686,-2.97656 0.324826,0 0.410456,0.54037 0.471686,2.97656 0.07178,2.85579 0.05264,2.97656 -0.471686,2.97656 -0.524322,0 -0.543462,-0.12077 -0.471686,-2.97656 z m 3.911269,-9.50876 c -0.509323,-0.14672 -1.48577,-0.21354 -2.169885,-0.1485 -0.936881,0.0891 -1.281162,0.021 -1.395063,-0.27582 -0.08317,-0.21674 -0.08701,-0.59636 -0.0085,-0.8436 0.07847,-0.24724 0.408591,-0.58095 0.733602,-0.74157 0.325012,-0.16062 1.461228,-0.59641 2.524927,-0.96841 1.063699,-0.37199 1.956668,-0.6764 1.984375,-0.67646 0.02771,-5e-5 0.02551,0.74409 -0.0049,1.65365 -0.03041,0.90956 -0.06018,1.80257 -0.06615,1.98447 -0.006,0.1819 -0.159674,0.32 -0.341575,0.30687 -0.181901,-0.0131 -0.747448,-0.1439 -1.25677,-0.29063 z m -20.300168,-3.38967 c 0.03675,-0.48791 0.229536,-0.52917 2.472327,-0.52917 2.302206,0 2.425057,0.0283 2.294088,0.52917 -0.125187,0.47871 -0.360897,0.52916 -2.472327,0.52916 -2.170845,0 -2.331162,-0.037 -2.294088,-0.52916 z m 39.879335,-9.25538 v -3.699126 l 0.7276,-0.164958 c 0.40019,-0.09072 1.44198,-0.339947 2.31511,-0.553825 0.87312,-0.213879 2.09285,-0.682329 2.7105,-1.040998 0.61766,-0.358672 1.28635,-0.974921 1.48598,-1.369444 0.19963,-0.394523 0.51448,-1.193564 0.69966,-1.775647 0.18517,-0.582084 0.57627,-1.39963 0.86909,-1.81677 0.29283,-0.417139 1.02045,-0.980072 1.61692,-1.25096 0.59648,-0.270889 1.55294,-0.495139 2.12546,-0.498335 0.57252,-0.0032 1.55395,0.242533 2.18096,0.546066 0.62702,0.303529 1.37352,0.879795 1.65891,1.280588 0.28539,0.400794 0.77196,1.405099 1.08127,2.231795 0.36433,0.973762 0.87992,1.757354 1.46411,2.225138 0.49595,0.397134 2.00451,1.079248 3.35235,1.515811 l 2.45062,0.79375 0.0768,3.042708 c 0.0422,1.673489 0.0102,3.310597 -0.0712,3.638017 l -0.14797,0.59532 h -12.29809 -12.29808 z m 14.04327,-6.334689 c 0.52455,-0.524547 0.77339,-1.039214 0.77339,-1.599525 0,-0.524348 -0.23723,-1.063365 -0.64943,-1.47556 -0.43952,-0.439523 -0.94564,-0.649433 -1.56586,-0.649433 -0.50403,0 -1.10916,0.07396 -1.34473,0.164354 -0.23556,0.09039 -0.60249,0.5012 -0.81539,0.912903 -0.21289,0.411702 -0.38708,1.001744 -0.38708,1.311206 0,0.309462 0.34802,0.910688 0.77339,1.336055 0.52784,0.527844 1.03834,0.773399 1.60785,0.773399 0.56952,0 1.08002,-0.245555 1.60786,-0.773399 z m -30.859888,3.278526 c 0.282474,-0.213653 0.89267,-0.388461 1.35599,-0.388461 0.463319,0 1.238662,0.07925 1.722982,0.176117 0.745678,0.149136 0.801412,0.207087 0.363802,0.378278 -0.284229,0.111191 -1.290688,0.206745 -2.236573,0.212344 -1.567913,0.0093 -1.674434,-0.02413 -1.206201,-0.378278 z M 81.012903,93.94395 c -0.22791,-0.09116 -0.33073,-0.824616 -0.33073,-2.3592 0,-2.208088 0.0057,-2.22691 0.671759,-2.22691 h 0.671761 l -0.07645,2.293752 c -0.04204,1.261562 -0.195508,2.323203 -0.341029,2.359202 -0.145521,0.036 -0.413411,0.0059 -0.595312,-0.06684 z"
       id="path1581" /><rect
       style="fill:#f4f4f4;fill-opacity:1;stroke-width:0.267933"
       id="rect8355"
       width="49.143639"
       height="69.327812"
       x="91.540771"
       y="100.74299" /></g></svg>
