<?xml version="1.0" encoding="UTF-8" standalone="no"?>
<!-- Created with Inkscape (http://www.inkscape.org/) -->

<svg
   version="1.1"
   id="svg48"
   width="92.51017"
   height="111.67747"
   viewBox="0 0 92.51017 111.67747"
   sodipodi:docname="bitmap.png"
   inkscape:export-filename="bitmap.svg"
   inkscape:export-xdpi="96"
   inkscape:export-ydpi="96"
   xmlns:inkscape="http://www.inkscape.org/namespaces/inkscape"
   xmlns:sodipodi="http://sodipodi.sourceforge.net/DTD/sodipodi-0.dtd"
   xmlns="http://www.w3.org/2000/svg"
   xmlns:svg="http://www.w3.org/2000/svg">
  <defs
     id="defs52" />
  <sodipodi:namedview
     id="namedview50"
     pagecolor="#ffffff"
     bordercolor="#000000"
     borderopacity="0.25"
     inkscape:showpageshadow="2"
     inkscape:pageopacity="0.0"
     inkscape:pagecheckerboard="0"
     inkscape:deskcolor="#d1d1d1"
     showgrid="false" />
  <g
     inkscape:groupmode="layer"
     inkscape:label="Image"
     id="g54"
     transform="translate(-0.25174832,-0.5351063)"
     style="display:inline">
    <rect
       style="display:inline;fill:#000000;fill-opacity:0"
       id="rect2240"
       width="92.51017"
       height="111.67747"
       x="0.25174832"
       y="0.5351063" />
    <rect
       style="display:inline;fill:#ffffff;fill-opacity:1"
       id="rect1355"
       width="63.252071"
       height="63.655193"
       x="13.305071"
       y="11.491015" />
    <path
       style="display:inline;fill:#000000"
       d="m 61.027559,70.491303 c 0.721875,-0.288871 1.584375,-0.253344 1.916667,0.07895 0.332291,0.332292 -0.258334,0.568641 -1.3125,0.52522 -1.164943,-0.04798 -1.4019,-0.284941 -0.604167,-0.604167 z m 6,0 c 0.721875,-0.288871 1.584375,-0.253344 1.916667,0.07895 0.332291,0.332292 -0.258334,0.568641 -1.3125,0.52522 -1.164943,-0.04798 -1.4019,-0.284941 -0.604167,-0.604167 z m -6,-4 c 0.721875,-0.288871 1.584375,-0.253344 1.916667,0.07895 0.332291,0.332292 -0.258334,0.568641 -1.3125,0.52522 -1.164943,-0.04798 -1.4019,-0.284941 -0.604167,-0.604167 z m 6,0 c 0.721875,-0.288871 1.584375,-0.253344 1.916667,0.07895 0.332291,0.332292 -0.258334,0.568641 -1.3125,0.52522 -1.164943,-0.04798 -1.4019,-0.284941 -0.604167,-0.604167 z m -6,-4 c 0.721875,-0.288871 1.584375,-0.253344 1.916667,0.07895 0.332291,0.332292 -0.258334,0.568641 -1.3125,0.52522 -1.164943,-0.04798 -1.4019,-0.284941 -0.604167,-0.604167 z m 6,0 c 0.721875,-0.288871 1.584375,-0.253344 1.916667,0.07895 0.332291,0.332292 -0.258334,0.568641 -1.3125,0.52522 -1.164943,-0.04798 -1.4019,-0.284941 -0.604167,-0.604167 z m -47.8125,-25.816886 v -21.5 h 26.5 26.5 v 21.5 21.5 h -26.5 -26.5 z m 45.809629,13.75 c -0.299488,-1.555115 -1.726008,-1.75 -12.809629,-1.75 -11.083621,0 -12.510141,0.194885 -12.809629,1.75 -0.307172,1.595014 0.82729,1.75 12.809629,1.75 11.982339,0 13.116801,-0.154986 12.809629,-1.75 z M 32.515442,45.09443 c 3.134789,-2.793992 5.699617,-5.620579 5.699617,-6.281303 0,-0.660724 -2.676195,-3.849587 -5.9471,-7.086362 -5.166117,-5.112211 -6.157879,-5.710113 -7.552162,-4.55296 -1.431327,1.187895 -1.055282,1.888781 3.47409,6.475123 l 5.079153,5.14304 -5.03758,4.769581 c -4.713651,4.462885 -5.577498,6.612868 -2.657001,6.612868 0.682751,0 3.806193,-2.285994 6.940983,-5.079987 z"
       id="path220"
       sodipodi:nodetypes="sssssssssssssssssssssssssssssscccccccccsssssssssscsss" />
    <rect
       style="display:inline;fill:#000000;fill-opacity:1"
       id="rect416"
       width="13.205639"
       height="7.1468863"
       x="23.248901"
       y="63.095833"
       inkscape:highlight-color="#000000" />
  </g>
</svg>
