<?xml version="1.0" encoding="UTF-8" standalone="no"?>
<!-- Created with Inkscape (http://www.inkscape.org/) -->

<svg
   width="70.842117mm"
   height="70.245193mm"
   viewBox="0 0 70.842118 70.245194"
   version="1.1"
   id="svg9276"
   xml:space="preserve"
   xmlns:inkscape="http://www.inkscape.org/namespaces/inkscape"
   xmlns:sodipodi="http://sodipodi.sourceforge.net/DTD/sodipodi-0.dtd"
   xmlns="http://www.w3.org/2000/svg"
   xmlns:svg="http://www.w3.org/2000/svg"><sodipodi:namedview
     id="namedview9278"
     pagecolor="#ffffff"
     bordercolor="#000000"
     borderopacity="0.25"
     inkscape:showpageshadow="2"
     inkscape:pageopacity="0.0"
     inkscape:pagecheckerboard="0"
     inkscape:deskcolor="#d1d1d1"
     inkscape:document-units="mm"
     showgrid="false" /><defs
     id="defs9273" /><g
     inkscape:label="Capa 1"
     inkscape:groupmode="layer"
     id="layer1"
     transform="translate(-77.976784,-94.405022)"><rect
       style="fill:#000000;fill-opacity:0;stroke-width:0.264583"
       id="rect9774"
       width="70.842117"
       height="70.245193"
       x="77.976784"
       y="94.405022"
       ry="0.91975147" /><ellipse
       style="fill:#ffffff;fill-opacity:1;stroke-width:0.363019"
       id="path10464"
       cx="105.49298"
       cy="121.84204"
       rx="23.017361"
       ry="23.063549" /><ellipse
       style="fill:#ffffff;fill-opacity:1;stroke-width:0.209495"
       id="path18020"
       cx="200.57864"
       cy="8.3936853"
       rx="11.301265"
       ry="5.5408139"
       transform="matrix(0.69691475,0.71715398,-0.74321481,0.66905288,0,0)" /><path
       style="fill:#000000;stroke-width:0.352778"
       d="m 135.22764,159.5377 c -3.07048,-1.41154 -13.28247,-13.11904 -12.3459,-14.15393 0.57009,-0.62995 0.56453,-0.71999 -0.10212,-1.65528 -1.55507,-2.18172 -1.89691,-2.31322 -3.38485,-1.30214 -24.898938,16.91926 -52.625052,-18.34124 -30.517049,-38.80986 21.393499,-19.807104 54.100459,9.14038 36.927199,32.68263 -0.74782,1.02516 2.23708,3.82836 3.17382,2.98063 0.36301,-0.32852 0.84656,-0.5973 1.07457,-0.5973 0.78717,0 12.83329,11.73318 13.37349,13.02607 2.07358,4.96276 -3.29117,10.08543 -8.19916,7.82918 z m 5.44733,-2.49146 c 2.78961,-2.60588 1.96206,-4.44171 -4.86122,-10.78408 -6.47789,-6.02134 -5.33121,-5.67829 -8.45811,-2.53038 -4.27371,4.30243 8.88522,17.45655 13.31933,13.31446 z m -29.789,-12.87886 c 17.18096,-4.07357 23.49211,-25.75852 11.1365,-38.26477 -14.52164,-14.698696 -39.338431,-4.57983 -39.296583,16.0229 0.02979,14.66826 13.899465,25.62304 28.160083,22.24187 z m -0.96172,-12.62868 c -0.0854,-0.24254 -1.09457,-4.92545 -2.24261,-10.40647 -2.5063,-11.96576 -1.92067,-11.88082 -5.09931,-0.73964 -3.518433,12.33213 -3.993163,12.72491 -5.263848,4.35514 -1.20773,-7.9551 -1.134667,-7.80934 -2.298775,-4.58611 -0.985393,2.72838 -0.891181,2.68082 -5.088474,2.56904 -5.590656,-0.14889 -6.029619,-1.59994 -0.533105,-1.76224 3.428639,-0.10125 3.428639,-0.10125 4.815329,-3.80541 2.483606,-6.63428 2.890232,-6.41532 4.17555,2.24848 0.432054,2.9123 0.895154,5.03146 1.040747,4.76249 0.144273,-0.26652 1.313986,-4.13584 2.599366,-8.59847 2.66057,-9.23714 2.82982,-9.70139 3.5368,-9.70139 0.79858,0 0.81499,0.0579 3.21374,11.33757 1.24334,5.84659 2.32973,10.69927 2.41419,10.78373 0.0845,0.0845 1.05087,-1.44515 2.14757,-3.39914 1.994,-3.55272 1.994,-3.55272 6.40839,-3.55272 6.39199,0 6.79677,1.51804 0.44986,1.68709 -3.73909,0.0996 -3.73909,0.0996 -6.29463,4.67431 -2.46042,4.40444 -3.50394,5.48805 -3.98079,4.13374 z"
       id="path9772" /></g></svg>
