<?xml version="1.0" encoding="UTF-8" standalone="no"?>
<!-- Created with Inkscape (http://www.inkscape.org/) -->

<svg
   width="23.07003mm"
   height="27.325542mm"
   viewBox="0 0 23.07003 27.325542"
   version="1.1"
   id="svg5"
   xml:space="preserve"
   xmlns:inkscape="http://www.inkscape.org/namespaces/inkscape"
   xmlns:sodipodi="http://sodipodi.sourceforge.net/DTD/sodipodi-0.dtd"
   xmlns="http://www.w3.org/2000/svg"
   xmlns:svg="http://www.w3.org/2000/svg"><sodipodi:namedview
     id="namedview7"
     pagecolor="#ffffff"
     bordercolor="#000000"
     borderopacity="0.25"
     inkscape:showpageshadow="2"
     inkscape:pageopacity="0.0"
     inkscape:pagecheckerboard="0"
     inkscape:deskcolor="#d1d1d1"
     inkscape:document-units="mm"
     showgrid="false" /><defs
     id="defs2" /><g
     inkscape:label="Capa 1"
     inkscape:groupmode="layer"
     id="layer1"
     transform="translate(-94.343498,-103.95271)"><rect
       style="fill:#000000;fill-opacity:0;stroke-width:0.264583"
       id="rect4256"
       width="23.07003"
       height="27.325542"
       x="94.343498"
       y="103.95271"
       rx="0"
       ry="0" /><path
       style="display:inline;fill:#000000;fill-opacity:1;stroke-width:0.264583"
       d="m 99.95587,106.82109 0.04316,14.60671 11.68096,0.0515 0.0675,-11.11672 -3.77866,-3.57468 z"
       id="path4202"
       sodipodi:nodetypes="cccccc" /><path
       style="display:inline;fill:#ffffff;fill-opacity:1;stroke-width:0.264583"
       d="m 112.27547,122.23023 0.31097,-0.37469 -0.0801,-6.12054 -0.0801,-6.12054 -2.01715,-1.97144 -2.01715,-1.97144 h -4.52198 -4.521973 l -0.273892,0.51178 -0.273893,0.51177 v 7.53912 7.53912 l 0.415774,0.41577 0.415774,0.41578 h 6.16641 6.16642 z m -12.15242,-8.09198 v -7.14375 h 3.30729 3.30729 v 1.70257 c 0,0.93641 0.11612,2.00797 0.25804,2.38125 l 0.25803,0.67868 h 2.12322 2.12321 v 4.7625 4.7625 h -5.68854 -5.68854 z m 7.9375,-5.47766 v -1.77348 l 1.08049,1.04588 c 0.59427,0.57524 1.31676,1.37331 1.60552,1.77349 l 0.52502,0.7276 h -1.60551 -1.60552 z"
       id="path954"
       sodipodi:nodetypes="cccccccccccccccccccccsscccccccccccscccc" /><text
       xml:space="preserve"
       style="font-style:normal;font-variant:normal;font-weight:bold;font-stretch:normal;font-size:9.87778px;font-family:sans-serif;-inkscape-font-specification:'sans-serif, Bold';font-variant-ligatures:normal;font-variant-caps:normal;font-variant-numeric:normal;font-variant-east-asian:normal;display:inline;fill:#fafafa;fill-opacity:1;stroke-width:0.264583"
       x="101.76734"
       y="119.53191"
       id="text1010"><tspan
         sodipodi:role="line"
         id="tspan1008"
         style="font-style:normal;font-variant:normal;font-weight:bold;font-stretch:normal;font-size:9.87778px;font-family:sans-serif;-inkscape-font-specification:'sans-serif, Bold';font-variant-ligatures:normal;font-variant-caps:normal;font-variant-numeric:normal;font-variant-east-asian:normal;fill:#fafafa;fill-opacity:1;stroke-width:0.264583"
         x="101.76734"
         y="119.53191">G</tspan></text></g></svg>
