<?xml version="1.0" encoding="UTF-8" standalone="no"?>
<!-- Created with Inkscape (http://www.inkscape.org/) -->

<svg
   width="141.67703mm"
   height="170.7551mm"
   viewBox="0 0 141.67703 170.7551"
   version="1.1"
   id="svg8287"
   xml:space="preserve"
   sodipodi:docname="users.svg"
   inkscape:export-filename="users.svg"
   inkscape:export-xdpi="96"
   inkscape:export-ydpi="96"
   xmlns:inkscape="http://www.inkscape.org/namespaces/inkscape"
   xmlns:sodipodi="http://sodipodi.sourceforge.net/DTD/sodipodi-0.dtd"
   xmlns="http://www.w3.org/2000/svg"
   xmlns:svg="http://www.w3.org/2000/svg"><sodipodi:namedview
     id="namedview8289"
     pagecolor="#ffffff"
     bordercolor="#000000"
     borderopacity="0.25"
     inkscape:showpageshadow="2"
     inkscape:pageopacity="0.0"
     inkscape:pagecheckerboard="0"
     inkscape:deskcolor="#d1d1d1"
     inkscape:document-units="mm"
     showgrid="false" /><defs
     id="defs8284" /><g
     inkscape:label="Capa 1"
     inkscape:groupmode="layer"
     id="layer1"
     transform="translate(-32.781895,-46.086601)"><rect
       style="fill:#ffffff;fill-opacity:0;stroke-width:0.264583"
       id="rect8837"
       width="141.67703"
       height="170.7551"
       x="32.781895"
       y="46.086601" /><path
       style="display:inline;fill:#ffffff;fill-opacity:1;stroke:#000000;stroke-width:1;stroke-dasharray:none"
       d="m 96.524835,169.90744 c -7.036286,-0.70355 -14.479126,-2.1554 -21.792863,-4.25107 -2.236178,-0.64075 -4.111413,-1.165 -4.167187,-1.165 -0.05577,0 -0.09984,-5.32805 -0.09793,-11.84011 0.0031,-10.59389 0.0564,-12.09658 0.506333,-14.27684 1.200383,-5.81679 4.708416,-11.4504 9.299477,-14.93419 3.345082,-2.53832 6.402527,-3.97382 10.370433,-4.86902 2.505652,-0.56529 18.855032,-0.85103 23.641242,-0.41316 6.57442,0.60145 11.57555,2.80261 15.9376,7.01463 2.95351,2.85194 4.94128,5.89217 6.39794,9.78544 1.29262,3.45482 1.3751,4.3878 1.50414,17.01368 l 0.12217,11.9544 -1.05968,0.54061 c -4.83624,2.46727 -12.93245,4.52501 -21.40181,5.43951 -4.56338,0.49275 -14.33736,0.49332 -19.259865,0.001 z m 46.432205,-23.53431 c -0.006,-9.53597 -1.88495,-15.51682 -6.85837,-21.8309 -2.70775,-3.43767 -6.38747,-6.31464 -10.6518,-8.32805 -1.35504,-0.63979 -2.79112,-1.24393 -3.19131,-1.34255 -0.87066,-0.21455 -0.90406,-0.40939 -0.18216,-1.0627 1.46345,-1.32441 3.99349,-5.35074 5.1447,-8.18735 0.6281,-1.54766 1.44899,-5.12825 1.45581,-6.350003 0.003,-0.582083 0.10581,-1.215921 0.22793,-1.40853 0.17983,-0.283628 2.17824,-0.330825 10.51314,-0.248293 9.52233,0.09429 10.44377,0.144214 12.33476,0.668343 7.58157,2.101403 13.24986,6.768193 16.62607,13.688483 2.38673,4.89214 2.44555,5.33611 2.56135,19.33396 l 0.10084,12.19021 -1.87713,0.86523 c -5.78799,2.66786 -14.73655,4.69426 -23.2251,5.25932 l -2.97656,0.19814 -0.002,-3.44531 z m -81.357203,3.00262 c -7.366653,-0.70361 -17.735463,-2.85987 -24.821108,-5.16171 l -1.273193,-0.41361 0.100613,-12.34255 c 0.115511,-14.17011 0.169971,-14.58441 2.561461,-19.4863 3.375799,-6.91946 9.034506,-11.57902 16.626071,-13.690433 1.914974,-0.532606 2.761784,-0.574561 13.44856,-0.666314 l 11.404906,-0.09792 0.175673,1.714683 c 0.52642,5.138164 3.32872,11.318704 6.488628,14.310834 0.451374,0.42741 0.820679,0.85505 0.820679,0.95031 0,0.0953 -0.506015,0.32345 -1.124479,0.5071 -5.164388,1.53348 -11.696323,6.50441 -15.064652,11.46449 -1.629933,2.40019 -3.54585,6.63625 -4.334867,9.58433 -0.627194,2.34345 -0.723259,3.27328 -0.84056,8.13594 l -0.132437,5.4901 -0.827021,-0.0358 c -0.454864,-0.0197 -1.898587,-0.1381 -3.208274,-0.26319 z M 100.19337,116.22361 C 90.459633,114.00539 84.052026,105.5984 84.55978,95.711831 c 0.269417,-5.245872 2.320221,-9.706935 6.130736,-13.336044 3.802581,-3.621553 9.577634,-5.729962 14.697864,-5.366031 8.7964,0.625224 15.82696,6.436593 18.14821,15.001086 0.69148,2.55125 0.64,7.192166 -0.10927,9.851398 -1.87986,6.67185 -6.74793,11.77806 -13.23235,13.87969 -2.53974,0.82313 -7.46286,1.06024 -10.0016,0.48168 z M 66.861886,95.960714 C 58.985831,94.884622 52.738539,89.490421 50.318959,81.676787 c -0.875273,-2.826552 -0.881135,-7.689596 -0.0129,-10.703701 1.89934,-6.593628 6.628159,-11.417973 13.410446,-13.681348 1.60057,-0.534141 2.373074,-0.618075 5.688541,-0.618075 3.315467,0 4.087971,0.08393 5.688541,0.618075 8.239501,2.749674 13.490278,9.382976 14.069872,17.774453 l 0.155609,2.252945 -1.478245,1.262904 c -3.226223,2.756252 -6.234689,7.745211 -7.366902,12.216585 -0.550143,2.172652 -0.633606,2.319506 -1.656913,2.915398 -3.13082,1.823133 -8.150635,2.766491 -11.955122,2.246691 z m 67.834854,0.0011 c -1.8398,-0.224597 -2.97938,-0.521642 -4.88434,-1.273169 -1.04409,-0.411906 -1.11864,-0.512601 -1.2873,-1.738929 -0.4362,-3.171584 -1.91515,-6.883104 -3.95313,-9.92066 -1.34133,-1.999224 -4.37474,-5.06975 -6.18468,-6.260362 l -1.1563,-0.760632 0.16221,-1.5519 c 0.70188,-6.715094 4.6185,-12.570483 10.4541,-15.628903 3.39923,-1.781526 5.00427,-2.153554 9.29107,-2.153554 3.31547,0 4.08798,0.08393 5.68855,0.618075 6.78228,2.263375 11.5111,7.08772 13.41044,13.681348 0.86823,3.014105 0.86237,7.877149 -0.0129,10.703701 -2.96321,9.569185 -11.85041,15.466437 -21.52772,14.285073 z"
       id="path8783" /></g></svg>
